<?xml version="1.0" encoding="UTF-8"?>
<svg viewBox="0 0 286.08295 292.53186" xmlns="http://www.w3.org/2000/svg">
 <g transform="translate(-212.18 -383.05)" fill="#fff" stroke="#000" stroke-dashoffset="3.003" stroke-linecap="round" stroke-linejoin="round" stroke-width="2">
  <path d="m291.33 387.49 8.122 149.07 188.4 0.86167 5.9734-153.38z"/>
  <path d="m497.27 532.26-1.6804 12.063h-199.13l-1.6804-12.063z"/>
  <path d="m252.82 670.7c-6.0214 1.7371-9.7318-2.4205-4.7444-6.1879l15.872-14.166c5.7846-56.583 7.9321-95.828 9.1214-152.41l-32.743 43.945 1.183 13.013-3.3372 1.2042-3.8775-3.8775-11.706 9.5217c-4.7561-1.1011-7.8518-3.1846-9.4044-9.0908 3.8259-5.7849 6.6347-8.1408 12.703-13.147l48.044-80.344 35.642-4.4562c11.757-1.3342 55.854-13.556 55.854-13.556l24.092-9.4502s3.111 1.241 1.9764 3.4802c-0.93254 1.8405-5.7216 4.5531-8.9759 6.1076 2.8693 3.3369 0.23605 11.74-0.5618 11.829l-15.619 1.2039s-54.724 28.385-54.747 30.483c4.675 58.019 6.0539 105.05 15.301 163.06l16.648 19.601c4.3746 4.1492 3.7068 6.4076-1.1077 7.1109l-38.344-11.202-9.1214-94.531-10.697 93.67z"/>
  <path d="m311 431.13c1.0245 9.1329-1.2507 19.337-8.6513 26.035-5.3276 4.5992-14.241 4.4946-19.245-0.10533-7.619-5.9272-10.692-15.553-11.005-24.686-0.1526-8.2322 2.4881-17.147 9.2872-22.91 4.8444-3.7697 12.318-4.2635 17.22-0.70087 7.8248 4.8653 11.373 13.847 12.394 22.367z"/>
 </g>
</svg>
